<?xml version="1.0" encoding="utf-8"?>
<!-- Generator: Adobe Illustrator 25.0.0, SVG Export Plug-In . SVG Version: 6.00 Build 0)  -->
<svg version="1.1" id="图层_1" xmlns="http://www.w3.org/2000/svg" xmlns:xlink="http://www.w3.org/1999/xlink" x="0px" y="0px"
	 viewBox="0 0 150 150" style="enable-background:new 0 0 150 150;" xml:space="preserve">
<style type="text/css">
	.st0{fill:#332E2D;}
	.st1{fill:#F8B6A8;}
	.st2{fill:#E88879;}
	.st3{fill:#EA978F;}
	.st4{fill:#DD4343;}
	.st5{fill:#FFFFFF;}
	.st6{fill:#09AA8B;}
</style>
<g>
	<g>
		<circle class="st0" cx="75.22" cy="59.33" r="54.47"/>
	</g>
	<g>
		<g>
			<circle class="st0" cx="35.14" cy="98.88" r="10.08"/>
		</g>
		<g>
			<circle class="st0" cx="19.26" cy="113.79" r="18.81"/>
		</g>
		<g>
			<circle class="st0" cx="117.82" cy="98.88" r="10.08"/>
		</g>
		<g>
			<circle class="st0" cx="131.19" cy="113.79" r="18.81"/>
		</g>
	</g>
	<g>
		<ellipse class="st1" cx="75.5" cy="68.49" rx="45.52" ry="49.47"/>
	</g>
	<g>
		<path class="st0" d="M121.02,40.14c-8.61-16.95-25.37-28.45-44.64-28.45c-25.46,0-46.54,20.08-50.22,46.27
			c5.29,3.29,11.41,5.2,17.96,5.2c15.2,0,28.16-10.14,33.4-24.45c5.09,7.25,13.16,11.97,22.28,11.97
			C108.31,50.67,115.91,46.57,121.02,40.14z"/>
	</g>
	<g>
		<g>
			<g>
				<ellipse class="st1" cx="28.49" cy="79.37" rx="10.88" ry="11.8"/>
			</g>
			<g>
				<path class="st2" d="M29.69,86.02c-4.12,0.41-7.76-2.23-8.13-5.92c-0.37-3.68,2.67-7.01,6.79-7.42"/>
			</g>
		</g>
		<g>
			<g>
				<ellipse class="st1" cx="121.95" cy="79.37" rx="10.88" ry="11.8"/>
			</g>
			<g>
				<path class="st2" d="M120.76,86.02c4.12,0.41,7.76-2.23,8.13-5.92c0.37-3.68-2.67-7.01-6.79-7.42"/>
			</g>
		</g>
	</g>
	<g>
		<g>
			<path class="st3" d="M91.87,97.51c0,8.06-7.45,13.45-16.65,13.45s-16.65-5.4-16.65-13.45"/>
		</g>
		<g>
			<path class="st4" d="M65.45,108.57c2.9,1.6,6.23,2.39,9.78,2.39s7.04-0.85,9.77-2.38c-0.83-3.96-5-7.24-9.77-7.24
				C70.47,101.34,66.28,104.61,65.45,108.57z"/>
		</g>
		<g>
			<path class="st5" d="M69.78,100.84h10.89c2.1,0,3.8-1.49,3.8-3.33H65.98C65.98,99.34,67.68,100.84,69.78,100.84z"/>
		</g>
	</g>
	<g>
		<path class="st2" d="M76.62,84.93v-7.92c0-1.83-1.49-3.32-3.32-3.32l0,0c-1.83,0-3.32,1.49-3.32,3.32v7.92v4.79
			c0,1.02,0.83,1.85,1.85,1.85h4.79h3.79c1.83,0,3.32-1.49,3.32-3.32v0c0-1.83-1.49-3.32-3.32-3.32H76.62z"/>
	</g>
	<g>
		<g>
			<path class="st0" d="M62.23,67.7H51.88c-1.14,0-2.06-0.92-2.06-2.06s0.92-2.06,2.06-2.06h10.36c1.14,0,2.06,0.92,2.06,2.06
				S63.37,67.7,62.23,67.7z"/>
		</g>
		<g>
			<path class="st0" d="M98.57,67.7H88.21c-1.14,0-2.06-0.92-2.06-2.06s0.92-2.06,2.06-2.06h10.36c1.14,0,2.06,0.92,2.06,2.06
				S99.71,67.7,98.57,67.7z"/>
		</g>
		<g>
			<circle class="st0" cx="57.06" cy="73.74" r="3.31"/>
		</g>
		<g>
			<circle class="st0" cx="93.39" cy="73.74" r="3.31"/>
		</g>
	</g>
	<g>
		<path class="st6" d="M31.87,150.32c0-15.24,19.41-27.59,43.35-27.59s43.35,12.35,43.35,27.59"/>
	</g>
	<g>
		<rect x="66.39" y="116.53" class="st1" width="17.67" height="17.67"/>
	</g>
	<g>
		<path class="st5" d="M57.84,124.67c-0.14,4.43,1.41,8.5,4.46,11.32c3.86,3.59,9.18,3.42,12.92,0.16c4.01,3.85,9.53,3.9,13.53-0.38
			c2.77-2.96,4.08-6.87,3.84-11.11c-2.64-0.82-5.11-1.22-7.95-1.65l-8.54,7.77c-0.5,0.45-1.26,0.45-1.75-0.01l-8.44-7.85
			C63.05,123.37,60.49,123.84,57.84,124.67z"/>
	</g>
</g>
</svg>
