<?xml version="1.0" encoding="utf-8"?>
<!-- Generator: Adobe Illustrator 25.0.0, SVG Export Plug-In . SVG Version: 6.00 Build 0)  -->
<svg version="1.1" id="图层_1" xmlns="http://www.w3.org/2000/svg" xmlns:xlink="http://www.w3.org/1999/xlink" x="0px" y="0px"
	 viewBox="0 0 150 150" style="enable-background:new 0 0 150 150;" xml:space="preserve">
<style type="text/css">
	.st0{fill:#F8B6A8;}
	.st1{fill:#E88879;}
	.st2{fill:#EA978F;}
	.st3{fill:#DD4343;}
	.st4{fill:#FFFFFF;}
	.st5{fill:none;stroke:#332E2D;stroke-width:3;stroke-linecap:round;stroke-miterlimit:10;}
	.st6{fill:#332E2D;}
	.st7{fill:#E08A5A;}
	.st8{fill:#DD928A;}
</style>
<g>
	<circle class="st0" cx="75.36" cy="71.14" r="42.79"/>
	<path class="st1" d="M74.85,75.73l-3.1,8.51c-0.88,2.42,0.71,5.13,3.28,5.34c0.11,0.01,0.22,0.01,0.33,0.01s0.22,0,0.33-0.01
		c2.57-0.21,4.16-2.92,3.28-5.34l-3.1-8.51C75.7,75.25,75.02,75.25,74.85,75.73z"/>
	<g>
		<path class="st2" d="M78.09,108.58h-5.46c-3.67,0-6.64-2.97-6.64-6.64v-5.7c0-1.24,1.01-2.25,2.25-2.25h14.25
			c1.24,0,2.25,1.01,2.25,2.25v5.7C84.73,105.61,81.76,108.58,78.09,108.58z"/>
		<path class="st3" d="M66.98,103.41c1.28,2.53,4.28,5.18,8.38,5.18s7.23-2.56,8.52-5.32c-1.28-2.53-4.42-3.38-8.52-3.38
			S68.26,100.88,66.98,103.41z"/>
		<path class="st4" d="M78.7,98.03c2.15,0,3.89-1.69,3.89-3.77c0-0.09-0.02-0.18-0.03-0.27H68.17c-0.01,0.09-0.03,0.18-0.03,0.27
			c0,2.08,1.74,3.77,3.89,3.77c1.43,0,2.66-0.76,3.34-1.87C76.04,97.27,77.27,98.03,78.7,98.03z"/>
	</g>
	<g>
		<path class="st5" d="M53.38,61.45c1.23-1.21,3.85-2.05,6.88-2.05c2.45,0,4.63,0.62,6.03,1.52"/>
		<g>
			<path class="st5" d="M84.58,61.45c1.23-1.21,3.85-2.05,6.88-2.05c2.45,0,4.63,0.62,6.03,1.52"/>
		</g>
		<line class="st5" x1="59.84" y1="67.47" x2="59.84" y2="72.86"/>
		<line class="st5" x1="91.03" y1="67.47" x2="91.03" y2="72.86"/>
	</g>
	<path class="st6" d="M135.88,58.45c0-3.97-1.79-7.49-4.57-9.74c1.12-3.16,1.14-6.56-0.24-9.6c-1.81-3.99-5.59-6.43-9.94-6.96
		c-0.26-6.63-5.48-12.01-12.14-12.65c0.02-0.32,0.05-0.65,0.05-0.98c0-6.63-5.13-12.01-11.45-12.01c-2.39,0-4.6,0.77-6.44,2.08
		c-2.82-2.4-6.48-3.86-10.49-3.86c-1.11,0-2.2,0.11-3.24,0.32c-3.31-2.9-7.86-4.69-12.89-4.69c-9.28,0-16.92,6.1-18.12,13.99
		c-1.47-0.36-3-0.58-4.58-0.58c-10.46,0-18.94,8.45-18.94,18.88c0,3.74,1.11,7.22,2.99,10.15c-6.33,1.75-11.03,8.08-11.03,15.65
		c0,8.92,6.51,16.15,14.54,16.15c8.03,0,14.54-7.23,14.54-16.15c0-0.45-0.03-0.89-0.06-1.34c4.62,0.02,9.21-3.07,11.37-8.17
		c0.07-0.16,0.12-0.32,0.18-0.48c2.51,2.4,5.73,3.83,9.23,3.83c5.77,0,10.74-3.91,13.1-9.56c2.1,1.84,4.8,2.96,7.75,2.96
		c4.49,0,8.41-2.58,10.49-6.39c1.59,2.66,4.09,4.72,7.09,5.78c-0.5,2.55-0.28,5.17,0.8,7.56c1.61,3.54,4.77,5.86,8.5,6.71
		c0.26,3.72,2.09,6.98,4.8,9.05c-0.57,1.12-0.93,2.37-0.93,3.73c0,4.38,3.39,7.94,7.57,7.94s7.57-3.55,7.57-7.94
		c0-1.23-0.29-2.39-0.77-3.43C133.79,66.5,135.88,62.73,135.88,58.45z"/>
	<ellipse class="st0" cx="32.47" cy="79.66" rx="7.69" ry="9.49"/>
	<ellipse class="st0" cx="118.06" cy="79.66" rx="7.69" ry="9.49"/>
	<rect x="67.22" y="110.14" class="st0" width="16.29" height="11.23"/>
	<path class="st7" d="M87.72,125v-8.1H63v8.1c-15.46,3.5-26.6,13.36-26.6,25h77.93C114.32,138.37,103.18,128.5,87.72,125z"/>
	<g>
		<circle class="st8" cx="65.88" cy="78.75" r="0.92"/>
		<circle class="st8" cx="63.74" cy="84.26" r="0.92"/>
		<circle class="st8" cx="53.99" cy="84.26" r="0.92"/>
		<circle class="st8" cx="58.43" cy="79.66" r="0.92"/>
		<circle class="st8" cx="97.84" cy="84.26" r="0.92"/>
		<circle class="st8" cx="85.3" cy="82.43" r="0.92"/>
		<circle class="st8" cx="89.57" cy="77.83" r="0.92"/>
		<circle class="st8" cx="96.93" cy="78.75" r="0.92"/>
	</g>
	<path class="st1" d="M35,85.51c-3.41,1.09-6.73-0.71-7.43-4.03c-0.7-3.32,1.5-6.89,4.9-7.98"/>
	<path class="st1" d="M117.81,73.47c3.47,0.71,5.92,4.02,5.47,7.4c-0.45,3.38-3.63,5.55-7.1,4.84"/>
</g>
</svg>
